<?xml version="1.0" encoding="UTF-8" standalone="no"?>
<svg version="1.0" 
 xmlns="http://www.w3.org/2000/svg"
 width="20" 
 height="20" 
 viewBox="0 0 20 20"
 preserveAspectRatio="xMidYMid meet">

<g transform="translate(0.000000,1452.000000) scale(0.100000,-0.100000)"
fill="#000000" stroke="none">
<path d="M0 7260 l0 -7260 13920 0 13920 0 -1 6223 c-1 4019 -4 6210 -11 6187
-21 -78 -51 -176 -59 -195 -119 -290 -260 -537 -421 -735 -138 -172 -241 -317
-313 -448 l-80 -142 -85 -27 c-122 -37 -224 -68 -310 -93 -41 -13 -100 -30
-130 -40 -48 -16 -241 -75 -325 -101 -16 -5 -79 -25 -140 -44 -60 -20 -137
-44 -170 -54 -154 -48 -702 -227 -805 -263 -63 -22 -137 -47 -165 -55 -27 -8
-59 -19 -70 -24 -11 -4 -87 -31 -170 -58 -221 -74 -447 -151 -470 -161 -11 -4
-33 -13 -50 -18 -57 -19 -180 -64 -202 -73 -28 -11 -31 -12 -218 -84 -241 -93
-329 -126 -352 -136 -32 -13 -50 -20 -213 -84 -80 -31 -154 -61 -165 -65 -11
-5 -63 -25 -115 -45 -52 -21 -104 -41 -115 -46 -11 -5 -123 -49 -250 -99 -126
-50 -239 -94 -250 -100 -11 -5 -146 -59 -300 -120 -154 -61 -289 -115 -300
-120 -11 -5 -72 -30 -135 -55 -63 -26 -124 -50 -135 -55 -11 -4 -41 -17 -67
-29 -26 -12 -51 -21 -54 -21 -3 0 -21 -7 -40 -15 -71 -31 -103 -45 -254 -105
-85 -34 -174 -71 -197 -81 -24 -10 -73 -31 -110 -45 -38 -14 -77 -30 -88 -34
-22 -10 -448 -187 -480 -200 -11 -4 -36 -15 -55 -23 -19 -8 -64 -27 -100 -42
-68 -28 -101 -42 -160 -68 -19 -8 -98 -41 -175 -72 -77 -31 -168 -70 -203 -86
-35 -16 -65 -29 -68 -29 -2 0 -26 -9 -52 -21 -26 -12 -56 -25 -67 -29 -43 -19
-451 -191 -470 -199 -11 -5 -51 -23 -88 -40 -37 -17 -70 -31 -73 -31 -3 0 -21
-7 -40 -15 -19 -8 -49 -21 -66 -29 -18 -7 -134 -57 -258 -111 -124 -53 -238
-103 -255 -110 -16 -7 -61 -27 -100 -44 -38 -18 -79 -36 -90 -40 -11 -5 -42
-19 -70 -31 -69 -31 -78 -35 -265 -115 -69 -29 -417 -183 -485 -215 -22 -10
-62 -28 -90 -40 -27 -13 -75 -34 -105 -47 -30 -14 -64 -29 -75 -34 -40 -17
-433 -193 -540 -241 -60 -28 -135 -61 -165 -75 -30 -14 -77 -36 -105 -48 -27
-13 -90 -43 -140 -66 -85 -39 -111 -51 -253 -115 -558 -254 -2671 -1308 -3782
-1886 -74 -39 -189 -98 -255 -132 -66 -34 -174 -91 -240 -125 -66 -35 -160
-85 -210 -111 -211 -111 -336 -176 -426 -224 -52 -28 -168 -89 -257 -136 -89
-47 -162 -91 -162 -97 0 -7 5 -13 11 -13 5 0 157 -58 337 -129 526 -208 911
-348 1322 -483 85 -27 180 -58 210 -68 30 -10 120 -39 200 -64 80 -25 159 -50
175 -56 217 -69 1036 -290 1195 -322 14 -3 95 -21 180 -41 85 -20 214 -47 285
-61 162 -32 217 -43 280 -55 75 -15 409 -70 495 -81 184 -24 234 -30 375 -45
733 -77 1404 -52 1870 71 134 35 337 103 352 117 3 4 13 7 20 7 13 0 360 169
428 208 298 172 573 367 840 597 676 580 1332 1341 1997 2320 172 252 452 692
547 857 37 66 178 304 191 325 8 12 12 25 8 28 -3 4 -44 -5 -89 -19 -46 -14
-109 -32 -139 -40 -78 -21 -339 -95 -375 -107 -27 -9 -658 -190 -730 -210 -16
-4 -41 -11 -55 -14 -14 -4 -92 -27 -175 -51 -82 -24 -168 -49 -190 -55 -22 -7
-53 -16 -70 -21 -50 -14 -379 -109 -400 -115 -11 -3 -81 -23 -155 -45 -74 -22
-158 -46 -187 -53 -28 -8 -98 -28 -155 -45 -56 -18 -128 -38 -158 -46 -57 -16
-723 -208 -775 -225 -40 -12 -302 -89 -340 -99 -69 -19 -176 -50 -260 -75 -49
-15 -103 -31 -120 -35 -16 -4 -86 -25 -155 -45 -69 -21 -154 -46 -190 -56 -36
-10 -135 -39 -220 -64 -141 -42 -245 -72 -325 -94 -16 -5 -70 -21 -120 -36
-49 -15 -103 -31 -120 -35 -16 -5 -147 -43 -290 -85 -314 -93 -420 -124 -460
-135 -16 -5 -115 -34 -220 -65 -104 -31 -205 -61 -222 -66 -74 -20 -105 -29
-253 -74 -85 -26 -164 -49 -175 -52 -11 -3 -69 -20 -130 -38 -60 -18 -119 -35
-130 -38 -11 -3 -74 -22 -140 -42 -66 -20 -135 -41 -152 -46 -18 -5 -48 -13
-65 -18 -18 -5 -103 -30 -188 -56 -85 -26 -168 -51 -185 -55 -16 -4 -100 -29
-185 -55 -85 -26 -170 -51 -187 -56 -18 -5 -48 -13 -65 -18 -18 -5 -103 -30
-188 -56 -85 -26 -168 -51 -185 -55 -16 -5 -84 -25 -150 -45 -66 -20 -133 -41
-150 -45 -16 -5 -70 -20 -118 -35 -49 -14 -94 -24 -100 -22 -7 3 0 8 16 12 15
4 27 11 27 16 0 5 4 9 9 9 8 0 349 160 751 352 69 33 150 72 180 85 30 14 96
45 145 68 128 61 246 116 350 164 50 23 117 55 150 70 123 59 259 123 590 276
187 86 367 169 400 185 33 15 96 45 140 65 44 21 112 52 150 70 100 47 192 89
250 115 28 13 82 37 120 55 39 18 171 78 295 135 124 56 276 127 338 156 62
30 116 54 120 54 4 0 36 14 72 31 70 34 142 66 205 94 22 10 76 34 120 55 75
35 784 356 850 385 77 33 154 68 200 90 28 12 66 30 85 38 40 17 445 197 535
237 33 15 78 35 100 45 22 9 58 25 80 35 60 27 124 56 180 80 28 12 64 28 80
35 112 49 456 200 485 212 19 8 55 24 80 35 59 27 116 52 165 73 22 9 58 25
80 35 80 35 195 85 420 181 127 55 239 103 250 108 11 5 36 16 57 25 20 9 39
16 42 16 3 0 34 13 68 29 35 16 135 59 223 96 88 37 180 76 204 87 24 10 67
28 95 39 28 11 67 27 86 36 19 8 44 19 55 24 11 4 108 44 215 89 107 44 203
85 212 90 10 6 22 10 28 10 5 0 39 14 75 30 36 17 68 30 71 30 3 0 21 7 40 15
54 24 90 39 229 95 72 28 140 56 153 61 12 5 32 13 45 18 26 10 51 21 130 55
32 14 61 26 66 26 4 0 21 6 37 14 16 8 263 107 549 221 286 113 529 210 540
215 37 15 299 118 395 155 52 20 104 40 115 45 11 5 110 43 220 85 390 151
573 222 630 245 11 4 34 13 50 18 28 10 306 114 350 132 82 32 115 45 235 90
74 28 178 67 230 87 52 19 159 59 237 89 78 30 147 54 153 54 6 0 18 4 28 9 9
6 62 26 117 46 98 36 113 42 167 63 34 14 40 5 23 -33 -8 -17 -35 -75 -60
-130 -119 -259 -358 -742 -500 -1010 -32 -60 -78 -148 -103 -195 -24 -47 -48
-89 -52 -95 -4 -5 -33 -59 -65 -120 -32 -60 -61 -114 -65 -120 -4 -5 -24 -41
-45 -80 -54 -100 -168 -303 -235 -420 -32 -55 -67 -117 -79 -138 -47 -83 -141
-245 -160 -277 -5 -8 -71 -116 -146 -240 -75 -124 -140 -232 -145 -240 -74
-117 -258 -413 -273 -440 -12 -19 -31 -49 -44 -66 -13 -17 -23 -34 -23 -38 0
-15 -507 -778 -735 -1106 -32 -47 -74 -107 -93 -135 -64 -91 -284 -399 -352
-490 -37 -49 -120 -162 -185 -250 -149 -201 -359 -474 -484 -629 -53 -65 -107
-133 -121 -151 -14 -18 -43 -55 -65 -81 -407 -492 -579 -688 -967 -1098 -645
-684 -1252 -1204 -1851 -1585 -70 -44 -130 -81 -132 -81 -3 0 -28 -15 -57 -32
-29 -18 -66 -41 -83 -50 -49 -28 -393 -198 -400 -198 -4 0 -23 -7 -43 -16
-227 -99 -396 -145 -613 -165 -135 -13 -562 -7 -734 10 -55 6 -154 15 -220 21
-122 12 -456 53 -575 71 -151 22 -203 30 -350 54 -145 23 -380 64 -495 86 -27
5 -75 13 -105 19 -116 20 -637 129 -865 181 -77 17 -156 35 -175 39 -258 56
-1045 253 -1280 320 -19 5 -125 35 -235 65 -226 62 -231 63 -375 106 -58 17
-129 37 -158 45 -29 8 -87 25 -130 38 -42 14 -124 39 -182 56 -378 113 -1345
432 -1455 480 -11 5 -47 18 -80 29 -33 11 -98 34 -145 51 -134 50 -171 64
-345 129 -44 16 -156 59 -250 96 -93 37 -188 74 -210 82 -45 17 -226 92 -370
153 -22 9 -69 30 -105 45 -36 15 -84 36 -107 46 -24 11 -45 19 -48 19 -3 0
-40 16 -83 36 -42 19 -97 44 -122 55 -25 12 -67 31 -95 44 -27 13 -81 37 -120
55 -69 31 -148 68 -352 166 -57 27 -103 51 -103 54 0 3 -17 14 -37 24 -50 24
-69 34 -109 57 -19 10 -49 28 -68 38 -19 11 -53 31 -75 45 -22 15 -43 26 -47
26 -3 0 -35 20 -71 45 -35 25 -66 45 -69 45 -3 0 -76 48 -163 108 -86 59 -173
118 -194 132 -39 27 -42 37 -12 54 11 6 37 21 58 34 21 13 53 31 70 41 18 10
120 69 227 131 107 62 220 126 250 142 30 17 65 37 77 44 12 8 38 23 57 34 20
11 53 30 74 42 20 12 55 31 77 44 913 508 900 501 985 546 30 17 60 33 65 38
6 4 57 32 115 63 58 30 170 91 250 134 295 161 837 451 1025 549 55 28 138 72
185 96 47 25 139 74 205 108 728 383 2380 1209 2955 1477 41 20 136 65 210
100 74 36 160 76 190 90 60 27 186 86 295 138 145 69 802 371 855 392 19 8 53
23 75 33 22 11 67 31 100 46 80 35 136 60 188 83 33 15 495 218 652 286 17 7
56 25 88 39 32 14 60 26 63 26 3 0 39 16 80 35 41 19 76 35 78 35 2 0 129 55
282 121 154 67 295 127 314 134 19 7 60 24 90 38 85 38 599 257 605 257 3 0
39 16 81 35 41 19 77 35 80 35 2 0 26 9 52 21 26 12 56 25 67 29 25 11 452
188 483 201 12 5 32 13 45 18 12 5 76 32 142 59 185 78 1089 445 1285 523 96
38 184 74 195 79 11 5 148 59 305 121 157 61 299 117 315 124 17 7 120 48 230
90 110 42 211 81 225 87 52 22 830 320 915 350 17 6 44 16 60 23 17 7 41 16
55 20 14 4 41 14 60 22 57 24 69 29 205 78 72 26 207 76 300 110 294 109 812
296 1055 381 52 18 181 63 285 99 415 145 1244 422 1590 530 83 26 197 62 255
80 58 19 152 48 210 65 94 28 284 86 365 111 158 49 775 217 858 234 l27 5 0
1010 0 1010 -13920 0 -13920 0 0 -7260z m24530 7235 c248 -9 711 -36 925 -55
413 -37 695 -67 930 -100 39 -5 106 -14 150 -20 90 -11 423 -65 500 -80 28 -5
100 -19 160 -31 61 -11 135 -26 165 -33 30 -8 82 -19 115 -26 33 -7 66 -14 74
-16 31 -10 -8 -24 -104 -39 -570 -87 -1639 -316 -2165 -464 -36 -10 -101 -28
-145 -40 -112 -29 -334 -90 -370 -101 -94 -29 -177 -53 -320 -95 -88 -25 -171
-50 -185 -55 -14 -5 -92 -30 -175 -55 -296 -93 -472 -150 -805 -264 -277 -94
-391 -134 -600 -211 -107 -40 -235 -87 -285 -105 -107 -39 -415 -156 -500
-189 -33 -14 -114 -46 -180 -71 -66 -26 -139 -56 -162 -66 -24 -11 -47 -19
-53 -19 -6 0 -18 -4 -28 -10 -9 -5 -73 -32 -142 -60 -266 -108 -326 -133 -367
-151 -24 -11 -45 -19 -48 -19 -2 0 -28 -11 -57 -24 -29 -13 -93 -41 -143 -62
-49 -20 -166 -70 -260 -111 -93 -41 -179 -78 -190 -82 -11 -5 -41 -18 -67 -30
-26 -12 -50 -21 -52 -21 -2 0 -42 -18 -88 -39 -45 -21 -119 -55 -163 -74 -120
-52 -771 -353 -1000 -462 -49 -23 -151 -71 -225 -106 -174 -83 -1402 -696
-1585 -792 -77 -40 -203 -106 -280 -146 -77 -40 -162 -86 -190 -101 -27 -15
-93 -50 -145 -78 -187 -99 -825 -444 -846 -457 -12 -8 -50 -29 -85 -48 -35
-19 -82 -44 -104 -57 -22 -13 -60 -34 -85 -48 -267 -149 -710 -399 -730 -412
-14 -9 -45 -28 -70 -42 -63 -36 -222 -126 -240 -137 -17 -11 -346 -202 -405
-236 -22 -13 -137 -82 -255 -153 -279 -168 -252 -153 -495 -298 -115 -70 -230
-138 -255 -153 -39 -22 -192 -114 -687 -413 -43 -26 -89 -53 -103 -61 -92 -52
-845 -521 -1715 -1067 -203 -128 -390 -245 -413 -259 -24 -14 -54 -33 -67 -41
-39 -25 -346 -214 -374 -230 -14 -8 -56 -34 -93 -57 -37 -24 -70 -43 -72 -43
-3 0 -47 -26 -98 -59 -51 -32 -181 -114 -288 -181 -107 -67 -234 -149 -282
-181 -48 -33 -90 -59 -93 -59 -3 0 -33 -20 -68 -43 -34 -24 -127 -88 -207
-142 -608 -413 -1045 -774 -1317 -1090 -149 -174 -253 -356 -298 -525 -29
-110 -32 -195 -9 -295 8 -39 18 -81 21 -95 3 -14 10 -31 16 -38 5 -7 10 -26 9
-42 0 -18 4 -29 11 -27 7 1 11 -9 10 -25 -1 -17 3 -27 10 -25 7 1 12 -10 12
-25 -1 -18 5 -28 13 -28 10 0 13 -8 10 -25 -4 -17 -1 -25 8 -25 8 0 14 -10 14
-24 0 -13 5 -26 10 -28 6 -2 12 -13 13 -25 0 -12 4 -20 8 -17 9 5 21 -25 13
-37 -3 -5 -1 -9 5 -9 14 0 44 -67 36 -79 -3 -6 1 -11 9 -11 9 0 16 -7 16 -16
0 -8 7 -22 16 -31 8 -9 13 -21 10 -28 -3 -8 2 -16 11 -19 8 -4 13 -13 10 -20
-3 -8 1 -17 9 -20 8 -3 14 -12 14 -21 0 -8 3 -15 8 -15 4 0 15 -17 25 -38 33
-69 113 -215 133 -242 6 -8 25 -40 41 -70 47 -85 91 -159 136 -227 15 -23 27
-44 27 -48 0 -3 11 -21 25 -39 14 -18 25 -35 25 -38 0 -7 51 -92 115 -190 28
-42 90 -139 139 -215 117 -181 129 -199 260 -392 173 -254 214 -315 331 -481
203 -290 302 -427 315 -435 13 -8 13 -25 0 -25 -38 0 -670 424 -949 635 -229
175 -241 184 -416 330 -660 552 -1172 1102 -1566 1681 -65 97 -119 177 -119
179 0 1 -29 50 -65 109 -36 58 -65 108 -65 111 0 2 -14 28 -31 56 -63 108
-312 595 -404 794 -21 44 -55 118 -77 165 -34 72 -241 534 -267 595 -5 11 -21
46 -35 78 -14 32 -26 60 -26 62 0 3 -9 24 -20 48 -27 59 -144 340 -256 617
-52 129 -99 244 -104 255 -7 16 -64 163 -110 280 -39 101 -63 163 -90 235 -18
47 -38 99 -45 115 -8 17 -20 48 -28 70 -8 22 -38 103 -67 180 -29 77 -61 165
-72 195 -11 30 -23 64 -28 75 -8 19 -58 154 -100 270 -59 165 -117 308 -144
360 -63 122 -161 259 -255 357 -24 26 -42 50 -38 54 12 12 311 -102 532 -203
400 -183 869 -466 1580 -952 103 -71 604 -403 660 -438 318 -199 560 -320 768
-386 l78 -25 64 44 c35 24 94 67 132 95 37 28 212 148 388 266 176 118 370
248 430 290 61 41 173 119 250 171 459 313 843 583 1313 922 134 96 262 188
285 204 44 31 384 279 547 400 170 125 1031 772 1205 906 94 71 222 169 285
218 215 165 258 198 726 562 426 332 596 466 860 673 461 363 631 496 659 517
18 14 183 142 366 285 391 306 592 460 923 709 213 161 310 233 666 491 127
93 517 361 545 375 6 3 62 39 125 81 203 134 474 293 685 404 44 23 98 52 120
63 73 38 309 144 400 179 275 106 380 132 1225 298 194 38 601 106 865 146 39
6 97 15 130 20 33 5 94 14 135 19 41 6 107 14 145 20 39 6 105 14 148 20 42 5
92 12 110 15 33 6 316 39 467 55 47 5 130 14 185 20 522 55 1170 97 1845 120
232 8 1159 4 1450 -5z m-24455 -4111 c25 -41 140 -226 170 -274 12 -19 111
-177 220 -350 109 -173 215 -340 236 -372 22 -31 39 -59 39 -62 0 -3 13 -24
28 -48 34 -52 307 -476 375 -584 413 -652 1430 -2175 1875 -2809 85 -121 176
-249 201 -285 283 -406 827 -1125 1048 -1389 30 -35 52 -66 49 -68 -3 -3 -29
8 -58 25 -29 17 -109 59 -178 94 -185 95 -259 135 -580 316 -201 113 -441 253
-510 297 -19 13 -78 49 -130 81 -402 243 -951 625 -1255 873 -337 275 -644
589 -797 813 -42 63 -135 238 -158 298 -7 19 -19 49 -26 65 -53 124 -177 552
-234 805 -12 52 -28 122 -35 155 -8 33 -27 132 -44 220 -17 88 -35 180 -40
205 -16 72 -89 534 -111 695 -5 39 -14 104 -20 145 -5 41 -12 93 -14 115 -2
22 -13 117 -25 210 -28 236 -36 314 -71 705 -6 63 -13 132 -14 152 -7 66 7 59
59 -28z"/>
</g>
</svg>
